<?xml version="1.0" encoding="UTF-8" standalone="no"?>
<!-- Created with Inkscape (http://www.inkscape.org/) -->

<svg
   xmlns:dc="http://purl.org/dc/elements/1.1/"
   xmlns:cc="http://creativecommons.org/ns#"
   xmlns:rdf="http://www.w3.org/1999/02/22-rdf-syntax-ns#"
   xmlns:svg="http://www.w3.org/2000/svg"
   xmlns="http://www.w3.org/2000/svg"
   xmlns:sodipodi="http://sodipodi.sourceforge.net/DTD/sodipodi-0.dtd"
   xmlns:inkscape="http://www.inkscape.org/namespaces/inkscape"
   id="svg3374"
   version="1.1"
   inkscape:version="0.48.4 r9939"
   width="797.63519"
   height="567.30859"
   sodipodi:docname="Oguz's Cat master.svg">
  <metadata
     id="metadata3380">
    <rdf:RDF>
      <cc:Work
         rdf:about="">
        <dc:format>image/svg+xml</dc:format>
        <dc:type
           rdf:resource="http://purl.org/dc/dcmitype/StillImage" />
        <dc:title></dc:title>
      </cc:Work>
    </rdf:RDF>
  </metadata>
  <defs
     id="defs3378" />
  <sodipodi:namedview
     pagecolor="#ffffff"
     bordercolor="#666666"
     borderopacity="1"
     objecttolerance="10"
     gridtolerance="10"
     guidetolerance="10"
     inkscape:pageopacity="0"
     inkscape:pageshadow="2"
     inkscape:window-width="1920"
     inkscape:window-height="1018"
     id="namedview3376"
     showgrid="false"
     showguides="true"
     inkscape:guide-bbox="true"
     inkscape:snap-bbox="true"
     inkscape:snap-bbox-midpoints="true"
     inkscape:snap-nodes="false"
     inkscape:zoom="0.45254834"
     inkscape:cx="-470.18064"
     inkscape:cy="187.25866"
     inkscape:window-x="-8"
     inkscape:window-y="-8"
     inkscape:window-maximized="1"
     inkscape:current-layer="svg3374"
     units="cm"
     inkscape:document-units="cm"
     fit-margin-top="0"
     fit-margin-left="0"
     fit-margin-right="0"
     fit-margin-bottom="0" />
  <g
     id="g3204"
     transform="matrix(0.55118922,0,0,0.61265325,0.01367419,34.807709)">
    <path
       sodipodi:nodetypes="ccccccccccccscscccccccccscssc"
       inkscape:connector-curvature="0"
       id="path3382"
       d="m 125.6732,404.16846 c -67.890164,-28.58 -93.543835,-94.78831 -101.007355,-121.88431 -2.521905,-3.232 4.67268,0.65483 -12.723428,0.38683 -5.155464,-1.145 -11.88235798,-11.501 -7.318095,-18.226 18.059773,-6.985 -5.47516498,0.931 14.638797,-5.49 6.693456,3.058 5.920266,-3.715 5.512746,-10.892 -0.13634,-12.044 -5.993938,-10.721 -17.64806,-17.551 -2.87518,-5.978 -8.706319,-6.056 -6.58428898,-17.723 13.79229098,-8.417 8.86453598,-2.041 23.40710898,-0.02 1.0859,-3.296 2.35536,-6.528 3.75,-9.75 C 9.517175,177.14098 6.654454,15.817985 26.689925,4.4999845 151.62677,-11.044015 180.20653,42.386982 236.13813,82.330982 c 17.12002,-2.099 34.8202,-3.219 52.9375,-3.219 18.1173,0 35.81748,1.12 52.9375,3.219 19.90706,-31.548 114.56064,-97.091997 198.4893,-79.2009975 22.50416,4.797 28.15832,173.9859955 9.97945,199.8889955 1.39386,3.221 2.63334,6.455 3.71875,9.75 8.6094,-0.845 10.17614,-3.859 16.23146,-2.646 10.30385,1.667 -0.72251,16.77 -3.59769,18.657 -16.63376,10.027 -12.94865,5.263 -6.72468,25.233 -0.0942,1.038 3.90314,1.637 1.05114,2.216 12.7582,0.517 15.58384,2.244 15.58384,2.244 4.39,8.419 -1.1024,14.468 -5.37018,16.697 -11.68582,1.206 -10.88871,2.578 -15.34719,11.846 -28.33991,54.03306 -47.45549,78.3862 -91.77013,104.4796 -10.71261,6.30782 -3.80876,8.07191 -4.61404,10.41435 100.02906,85.97411 132.46051,456.66935 -16.80249,463.40035 -131.51677,5.931 -214.49906,-2.69457 -299.5813,1.61801 C -1.3654451,874.25892 16.383244,479.69902 127.23153,410.99096"
       style="fill:#000000;fill-opacity:1;stroke:#ff0000;stroke-width:0.17716534;stroke-miterlimit:4;stroke-opacity:1;stroke-dasharray:none" />
    <path
       sodipodi:nodetypes="csssssc"
       inkscape:connector-curvature="0"
       id="path3152-5"
       d="m 349.65842,200.06398 c 12.45563,-19.745 30.96086,-24.987 37.27361,-2.528 3.47233,12.354 34.38525,15.022 40.1891,-11.338 2.7109,-12.312 32.13559,29.079 32.13559,29.079 18.70684,0.717 -14.29199,-41.068 -42.76075,-46.216 -15.7674,-2.851 -24.99629,-5.071 -34.69522,-1.094 -27.84675,11.417 -55.17134,24.701 -32.14233,32.097 z"
       style="fill:#ffffff;stroke:#000000;stroke-width:1px;stroke-linecap:butt;stroke-linejoin:miter;stroke-opacity:1" />
    <path
       sodipodi:nodetypes="csssssc"
       inkscape:connector-curvature="0"
       id="path3152-5-6"
       d="m 226.96641,200.13798 c -18.80411,-21.11 -30.92113,-20.009 -37.96721,-2.334 -4.804,12.051 -34.98866,15.2 -40.95506,-11.127 -2.78681,-12.297 -32.66791,29.243 -32.66791,29.243 -19.050775,0.815 13.55022,-39.067 41.86598,-47.228 18.56877,-5.351 25.57281,-3.647 34.64921,-0.511 28.88515,9.981 58.51369,24.441 35.07499,31.957 z"
       style="fill:#ffffff;stroke:#000000;stroke-width:1.00915003px;stroke-linecap:butt;stroke-linejoin:miter;stroke-opacity:1" />
    <path
       sodipodi:nodetypes="cccccccccccccc"
       inkscape:connector-curvature="0"
       id="path3194"
       d="m 284.54525,274.17298 c -12.27832,-11.002 -15.56723,-17.078 -16.47029,-35.142 20.33555,-6.482 28.65542,-7.385 48.60721,-3.169 -2.64432,18.901 -6.83461,25.16 -20.73444,39.482 -1.21524,19.103 19.4275,16.366 31.53798,10.789 7.32486,-4.479 11.51009,-14.882 17.97785,-17.324 6.1604,-1.295 1.62374,8.821 1.88197,14.356 -6.69602,6.933 -4.48837,6.572 -11.99518,11.676 -21.92023,12.531 -35.37413,8.2 -45.86212,-2.612 -13.50893,18.957 -36.81135,13.042 -52.53532,-0.948 -2.56174,-5.592 -3.14844,-3.892 -6.40856,-10.395 -1.23441,-3.448 -0.30055,-8.94 6.55247,-6.918 7.54814,7.581 8.47339,9.197 14.48908,14.389 8.3974,-0.385 23.37625,9.253 32.95935,-14.184 z"
       style="fill:#ffffff;stroke:#000000;stroke-width:1px;stroke-linecap:butt;stroke-linejoin:miter;stroke-opacity:1" />
  </g>
  <path
     style="fill:#000000"
     d="m 567.70126,539.69326 c -1.7454,2.57238 -6.95179,8.30758 -11.56974,12.74488 -8.83885,8.49296 -15.30248,11.93025 -23.04411,12.25429 -2.01,0.0842 -6.31584,0.80113 -9.56853,1.59319 -3.2527,0.79206 -9.25822,1.21438 -13.34562,0.93853 -8.53301,-0.57598 -15.40905,-2.95432 -47.39282,-16.39216 -24.09739,-10.12445 -29.3067,-12.62562 -29.24728,-14.04257 0.0245,-0.58387 -0.99615,-1.18471 -2.26809,-1.33522 -1.27195,-0.1505 -5.41122,-2.13712 -9.19847,-4.41464 -7.71329,-4.63859 -23.11869,-10.47275 -26.84253,-10.16551 -3.96809,0.32738 -6.64766,0.21045 -7.61937,-0.33251 -0.50151,-0.28026 -2.76987,0.22494 -5.04073,1.12266 -2.27085,0.8977 -4.71137,1.41048 -5.42354,1.13942 -0.71223,-0.27054 -4.84456,0.54429 -9.1833,1.81178 -4.33884,1.26749 -7.79609,2.0612 -7.6829,1.76377 0.11318,-0.29744 -1.55015,-0.0386 -3.69636,0.5752 -6.29797,1.80106 -14.66794,0.23162 -21.57755,-4.04603 -3.16459,-1.95913 -7.6627,-4.23928 -9.99588,-5.067 -2.33319,-0.82763 -4.71636,-2.15037 -5.29596,-2.93923 -0.91096,-1.23977 -0.7506,-1.5175 1.18229,-2.04763 1.79219,-0.4916 2.17858,-1.06202 1.94595,-2.87357 -0.15964,-1.24313 0.25627,-3.02673 0.92431,-3.96355 1.24731,-1.74923 -0.3109,-3.55748 -4.55104,-5.28128 -1.01926,-0.41441 -3.56233,-2.58821 -5.65128,-4.83071 -2.08893,-2.24251 -4.89044,-4.49745 -6.2255,-5.01096 -3.04289,-1.17043 -7.63024,-4.97031 -7.23955,-5.99684 0.16091,-0.42405 1.93465,-0.69694 3.9408,-0.60681 3.05665,0.13736 3.95734,-0.35652 5.56046,-3.04904 2.25026,-3.77913 5.20215,-6.16457 9.72785,-7.86082 3.24483,-1.21616 3.2562,-1.23593 1.18467,-2.05784 -1.15036,-0.45644 -1.95093,-1.19944 -1.77903,-1.6511 0.17219,-0.45155 -0.69401,-1.771 -1.92427,-2.93182 -1.23023,-1.16083 -2.36981,-3.74287 -2.5323,-5.73785 -0.17248,-2.11714 -1.32145,-4.59523 -2.75958,-5.95227 -2.86781,-2.70597 -2.10206,-4.42443 1.56261,-3.5068 1.99467,0.49912 3.21937,-0.10769 5.59991,-2.77598 3.4734,-3.89308 9.19832,-4.98522 17.09729,-3.26172 4.02673,0.87861 4.53322,0.75417 4.30073,-1.05634 -0.14496,-1.12874 0.44903,-3.92436 1.31991,-6.21252 0.87092,-2.28815 1.4137,-5.60404 1.2062,-7.36863 -0.37773,-3.21177 0.0787,-5.70975 0.98049,-5.36652 0.26384,0.10058 1.08342,0.97836 1.82103,1.95088 1.07985,1.42385 1.76169,1.57947 3.50102,0.79916 1.188,-0.53298 3.38679,-0.82388 4.88605,-0.64652 3.26442,0.38624 16.19285,7.42377 20.88792,11.37025 1.84202,1.54831 4.65892,3.32063 6.25974,3.93848 2.78239,1.07386 3.00726,0.93627 5.09796,-3.12001 1.20298,-2.33387 2.06801,-5.17195 1.92217,-6.30688 -0.14573,-1.13491 0.22838,-2.61454 0.83122,-3.28812 0.93304,-1.04245 1.2527,-0.94813 2.14808,0.63371 0.68294,1.20666 3.53986,2.80749 8.14707,4.56516 6.49674,2.47806 7.55766,3.24346 12.57457,9.06589 3.01371,3.4975 6.26081,7.93301 7.2158,9.85668 0.95508,1.92373 1.82555,3.26377 1.93435,2.97787 0.10877,-0.28592 0.74927,0.56154 1.42321,1.88319 0.67396,1.32166 1.35502,2.06238 1.51349,1.64603 0.15809,-0.41649 0.77943,0.166 1.37993,1.29407 2.19124,4.11648 7.49754,7.24301 21.19414,12.48775 24.37461,9.33364 46.50117,15.57499 47.34608,13.35511 0.16506,-0.43371 3.24258,-1.2454 6.83891,-1.80376 3.59633,-0.55835 7.19637,-1.26983 8.00005,-1.58108 13.06622,-5.06032 24.60689,-8.34123 26.63086,-7.57088 0.40662,0.1545 2.09439,-0.37816 3.75064,-1.18422 1.65627,-0.8061 8.01336,-1.51624 14.12684,-1.57815 12.0137,-0.12161 18.55201,1.56354 25.13747,6.47895 4.66934,3.48521 5.47927,5.28092 5.60647,12.42968 0.0983,5.52518 -0.54665,7.94947 -6.38524,24.00369 -4.45748,12.25662 -7.48986,19.3248 -9.66798,22.53486 z M 407.02345,448.16642 c -0.23547,-3.68338 -3.91359,-7.10477 -7.39837,-6.88198 -6.40104,0.40927 -10.18281,7.20047 -6.69218,12.01749 1.99513,2.75322 3.53088,3.44336 7.14782,3.21212 4.42241,-0.28272 7.24159,-3.67255 6.94273,-8.34763 z m -32.06362,43.85533 c -0.23285,-2.04146 0.0555,-3.31826 0.78103,-3.45767 2.05701,-0.39541 3.5606,-6.22078 2.26251,-8.76628 -0.67393,-1.32166 -0.83397,-3.43131 -0.35562,-4.68812 0.5209,-1.36875 0.0509,-4.11008 -1.172,-6.83603 -1.87511,-4.17955 -2.40245,-4.64358 -6.46222,-5.68642 -5.31371,-1.36495 -10.18039,0.29192 -11.56827,3.93843 -0.73633,1.93451 -1.73352,2.5499 -4.25085,2.62297 -4.53838,0.13173 -7.22503,2.22731 -9.06987,7.0744 -2.80787,7.37735 0.3349,15.16504 6.5403,16.2065 2.68502,0.45064 2.94463,0.7848 2.37687,3.05975 -0.85806,3.43924 2.14649,8.05481 5.50212,8.45186 3.56002,0.42121 9.30571,-1.74679 12.49815,-4.71588 3.31027,-3.07879 3.37117,-3.22897 2.91782,-7.20351 z m -26.73503,16.38321 c -1.38925,-3.56185 -8.25678,-5.8009 -12.26999,-4.00045 -6.33132,2.84053 -6.17179,12.14437 0.25029,14.58866 4.29212,1.63363 10.07287,-0.82052 11.64167,-4.94231 0.70086,-1.84144 0.87102,-4.38208 0.37799,-5.6459 z m 16.66236,-67.46462 c -0.42033,-3.2736 -4.94924,-7.30299 -8.20958,-7.30416 -3.2721,-0.001 -6.97426,2.44417 -8.07372,5.33286 -1.23648,3.24883 1.91182,9.5021 5.46487,10.85442 5.6061,2.13368 11.60111,-2.78886 10.81843,-8.88312 z M 333.0338,485.296 c -1.49849,-4.79605 -6.29215,-6.29297 -11.98022,-3.74107 -5.19877,2.33237 -6.42718,4.83316 -4.49253,9.14557 1.62251,3.61645 4.82384,5.17851 9.51622,4.64332 5.90335,-0.67339 8.64728,-4.63662 6.95653,-10.04782 z m 7.12486,-25.22977 c -3.00547,-6.69923 -10.62611,-8.37245 -15.34674,-3.3696 -2.96162,3.13882 -2.07894,7.48962 2.15143,10.604 4.53108,3.33575 6.07715,3.67689 9.56755,2.11101 4.00914,-1.7987 5.40287,-5.38888 3.62758,-9.34549 z"
     id="path3087"
     inkscape:connector-curvature="0" />
  <path
     style="fill:#000000"
     d="m 791.22727,180.32925 c 4.21815,7.47273 5.80006,13.70543 5.91589,23.30867 0.32497,26.9398 -16.81243,56.84499 -43.17449,75.34051 l -7.59393,5.32787 -1.32451,8.5207 c -1.60282,10.31091 -7.12839,29.29227 -11.58938,39.81156 -31.1278,73.40148 -101.52121,118.51166 -183.27759,117.44973 -37.00449,-0.48066 -76.88596,-12.42288 -109.17167,-32.69069 l -5.91774,-3.71494 -4.67865,3.18063 c -21.08713,14.33538 -46.89879,10.76549 -73.77731,-10.20377 -33.87789,-26.42983 -63.60413,-79.7771 -66.66703,-119.64189 -1.53313,-19.95444 2.5261,-34.62961 16.86359,-60.96617 17.86416,-32.8147 18.37468,-36.03193 12.32985,-77.70044 -5.95286,-41.03466 -6.09844,-42.96684 -3.82604,-50.777635 4.91911,-16.908194 19.02146,-45.251491 26.92142,-54.107491 5.93143,-6.649242 25.80141,-12.171331 33.37694,-9.27584 4.23158,1.617376 9.12911,6.773046 11.16301,11.751405 4.11331,10.068039 3.1936,30.831969 -2.56279,57.858911 l -2.61589,12.2819 12.26625,-12.8701 c 13.89749,-14.581698 25.58285,-23.821194 42.23734,-33.396661 10.3198,-5.933343 31.41743,-14.710146 43.07035,-17.917641 l 6.90903,-1.901727 3.45521,-6.747739 c 4.53682,-8.86001 16.789,-23.940895 25.20176,-31.020192 8.08844,-6.8063578 20.78892,-14.1787926 29.79649,-17.2963815 3.76885,-1.3044291 11.14002,-2.7419148 16.38035,-3.1944312 32.02745,-2.7656043 51.88219,21.9640877 45.19652,56.2936847 l -1.56151,8.018121 9.89473,4.212181 c 18.7991,8.002747 31.77485,15.383257 47.52921,27.03425 23.69281,17.521766 46.99215,44.510156 60.76682,70.388146 2.24689,4.22117 4.35388,7.91448 4.68222,8.20737 0.32832,0.29288 3.76223,-0.4926 7.63087,-1.74553 14.50086,-4.69638 28.19487,-4.49265 39.36573,0.58559 7.47705,3.39906 12.57105,8.13286 16.78495,15.59804 z"
     id="path3187"
     inkscape:connector-curvature="0" />
</svg>
